<svg width="38" height="42" viewBox="0 0 38 42" fill="none" xmlns="http://www.w3.org/2000/svg">
<path d="M36.9421 37.0497L30.7734 26.3652C30.9949 26.107 31.296 25.9161 31.6475 25.8332C32.6192 25.6043 33.4249 24.9571 33.858 24.0576C34.2912 23.1582 34.2948 22.1247 33.868 21.2223C33.5413 20.5316 33.728 19.7136 34.322 19.233C35.0982 18.6051 35.5433 17.6724 35.5433 16.6741C35.5433 15.6759 35.0982 14.7431 34.322 14.1153C33.728 13.6347 33.5413 12.8167 33.868 12.126C34.2948 11.2235 34.2912 10.19 33.858 9.29058C33.4249 8.39113 32.6192 7.74393 31.6474 7.51499C30.9037 7.33977 30.3805 6.68379 30.3752 5.91969C30.3683 4.9214 29.9166 3.99185 29.1361 3.36942C28.3556 2.74699 27.3487 2.51345 26.374 2.72886C25.6278 2.89357 24.8719 2.52961 24.5356 1.84352C24.0961 0.947112 23.2859 0.305566 22.3126 0.0834321C21.3392 -0.138784 20.3309 0.0877796 19.546 0.704717C18.9454 1.17696 18.1063 1.17696 17.5056 0.704717C16.7208 0.0877796 15.7125 -0.13862 14.7391 0.0834321C13.7658 0.305566 12.9556 0.947112 12.5161 1.84352C12.1798 2.52961 11.4236 2.89382 10.6778 2.72886C9.70298 2.51361 8.69616 2.74699 7.91574 3.36942C7.13523 3.99185 6.68358 4.9214 6.67661 5.91969C6.67128 6.68371 6.1481 7.33977 5.40435 7.51499C4.43263 7.74393 3.62687 8.39113 3.19375 9.29058C2.76056 10.19 2.75703 11.2235 3.18383 12.1259C3.51055 12.8166 3.32385 13.6347 2.7298 14.1152C1.95364 14.7431 1.50847 15.6758 1.50847 16.6741C1.50847 17.6724 1.95364 18.6051 2.7298 19.2329C3.32385 19.7135 3.51055 20.5315 3.18383 21.2222C2.75695 22.1247 2.76056 23.1582 3.19375 24.0576C3.62687 24.9571 4.43263 25.6043 5.40443 25.8332C5.75584 25.916 6.05696 26.107 6.27852 26.3652L0.109885 37.0497C-0.0562227 37.3374 -0.0323523 37.697 0.170259 37.9602C0.372951 38.2234 0.714355 38.3383 1.035 38.2515L5.33142 37.0858L6.47023 41.3895C6.55521 41.7107 6.82557 41.9488 7.15492 41.9927C7.19126 41.9976 7.22751 41.9999 7.26353 41.9999C7.55366 41.9999 7.82583 41.8457 7.97365 41.5898L13.2373 32.473C13.6541 32.8589 14.1682 33.1345 14.7393 33.2649C15.7125 33.4868 16.7209 33.2605 17.5059 32.6436C18.1065 32.1713 18.9456 32.1713 19.5463 32.6436C20.1336 33.1052 20.8459 33.3483 21.5752 33.3483C21.8205 33.3483 22.0678 33.3208 22.3128 33.2649C22.8838 33.1345 23.398 32.8589 23.8148 32.473L29.0784 41.5898C29.2262 41.8458 29.4984 41.9999 29.7885 41.9999C29.8244 41.9999 29.8608 41.9976 29.8971 41.9927C30.2265 41.9488 30.4968 41.7106 30.5818 41.3895L31.7206 37.0858L36.017 38.2515C36.3377 38.3386 36.6792 38.2234 36.8818 37.9602C37.0844 37.697 37.1083 37.3374 36.9421 37.0497ZM7.54743 39.0469L6.7063 35.8683C6.65036 35.6571 6.51263 35.4769 6.32348 35.3677C6.13424 35.2585 5.9094 35.2293 5.69858 35.2865L2.52522 36.1473L6.89358 28.5812C7.10029 29.1229 7.44858 29.6061 7.9159 29.9789C8.6964 30.6013 9.7033 30.8348 10.678 30.6194C11.2285 30.4979 11.7839 30.6649 12.1726 31.0361L7.54743 39.0469ZM21.9476 31.6655C21.4592 31.7768 20.9537 31.6632 20.5601 31.3539C19.9612 30.8831 19.2437 30.6477 18.526 30.6477C17.8084 30.6477 17.0906 30.8832 16.4918 31.3539C16.0983 31.6633 15.5927 31.7769 15.1043 31.6655C14.6162 31.5541 14.2098 31.2323 13.9894 30.7827C13.3189 29.4148 11.8114 28.6889 10.324 29.0175C9.83504 29.1255 9.33016 29.0084 8.93871 28.6962C8.54727 28.384 8.32071 27.9178 8.31718 27.4171C8.3066 25.8938 7.26353 24.5858 5.78069 24.2365C5.29328 24.1216 4.8892 23.797 4.67191 23.3459C4.4547 22.8947 4.45289 22.3765 4.66699 21.9237C5.3183 20.5466 4.94605 18.9157 3.76164 17.9576C3.37233 17.6427 3.14913 17.1748 3.14913 16.6741C3.14913 16.1734 3.37241 15.7056 3.76172 15.3907C4.94605 14.4326 5.31838 12.8017 4.66699 11.4245C4.45289 10.9718 4.4547 10.4535 4.67199 10.0024C4.8892 9.55127 5.29336 9.22668 5.78069 9.11184C7.26353 8.76248 8.3066 7.45453 8.31718 5.93118C8.32071 5.43047 8.54719 4.96422 8.93871 4.6521C9.33016 4.3399 9.83496 4.22268 10.3241 4.3308C11.8114 4.65916 13.3189 3.93353 13.9894 2.56562C14.2098 2.11602 14.6162 1.79422 15.1043 1.68283C15.5926 1.57151 16.0983 1.68496 16.4918 1.99437C17.6895 2.93598 19.3624 2.93598 20.5601 1.99437C20.9538 1.68496 21.4593 1.57151 21.9476 1.68283C22.4358 1.79422 22.8422 2.11602 23.0626 2.56562C23.7331 3.93353 25.2404 4.65916 26.7279 4.3308C27.2168 4.2226 27.7218 4.3399 28.1132 4.6521C28.5047 4.9643 28.7313 5.43047 28.7348 5.93118C28.7454 7.45453 29.7884 8.76248 31.2713 9.11184C31.7587 9.22668 32.1628 9.55127 32.3801 10.0024C32.5973 10.4536 32.5991 10.9718 32.385 11.4246C31.7337 12.8017 32.1059 14.4326 33.2903 15.3907C33.6796 15.7056 33.9028 16.1734 33.9028 16.6741C33.9028 17.1748 33.6796 17.6427 33.2902 17.9576C32.1059 18.9157 31.7336 20.5466 32.385 21.9238C32.5991 22.3765 32.5973 22.8948 32.38 23.3459C32.1628 23.797 31.7586 24.1216 31.2713 24.2365C29.7884 24.5858 28.7454 25.8938 28.7348 27.4171C28.7313 27.9178 28.5048 28.3841 28.1132 28.6962C27.7218 29.0084 27.2169 29.1254 26.7279 29.0175C25.2404 28.6888 23.7331 29.4148 23.0626 30.7827C22.8422 31.2323 22.4358 31.554 21.9476 31.6655ZM31.3534 35.2865C31.1425 35.2293 30.9176 35.2586 30.7285 35.3677C30.5393 35.477 30.4015 35.6571 30.3457 35.8683L29.5045 39.0469L24.8794 31.0361C25.2682 30.6648 25.8237 30.4977 26.374 30.6194C27.3489 30.8348 28.3556 30.6013 29.1361 29.9789C29.6034 29.6062 29.9517 29.1229 30.1584 28.5812L34.5267 36.1473L31.3534 35.2865Z" fill="#3B9670"/>
<path d="M22.4286 22.8775C22.5979 22.8775 22.7671 22.8252 22.9108 22.7208C23.1976 22.5124 23.3181 22.1434 23.2096 21.806L21.9165 17.7859L25.3264 15.2805C25.6121 15.0706 25.7306 14.7008 25.6202 14.3639C25.5097 14.0271 25.1953 13.7993 24.8408 13.7993H20.6212L19.3054 9.79011C19.1948 9.4533 18.8805 9.22559 18.526 9.22559C18.1716 9.22559 17.8572 9.4533 17.7467 9.79011L16.4309 13.7993H12.2113C11.8568 13.7993 11.5423 14.0271 11.4319 14.3639C11.3214 14.7008 11.4399 15.0706 11.7257 15.2805L15.1356 17.7859L13.8425 21.806C13.734 22.1435 13.8545 22.5124 14.1413 22.7208C14.4281 22.9291 14.8163 22.9296 15.1036 22.7222L18.5262 20.251L21.9488 22.7222C22.0918 22.8257 22.2602 22.8775 22.4286 22.8775ZM19.0061 18.5742C18.8627 18.4707 18.6943 18.419 18.5259 18.419C18.3575 18.419 18.1891 18.4707 18.0457 18.5742L16.1694 19.929L16.878 17.7258C16.986 17.3899 16.8672 17.0225 16.5828 16.8136L14.7129 15.4397H17.0248C17.3793 15.4397 17.6937 15.212 17.8042 14.8751L18.5259 12.6762L19.2476 14.8751C19.3581 15.212 19.6725 15.4397 20.0269 15.4397H22.3388L20.469 16.8136C20.1846 17.0225 20.0657 17.3898 20.1738 17.7258L20.8824 19.929L19.0061 18.5742Z" fill="#3B9670"/>
<path d="M30.0099 16.6742C30.0099 10.3419 24.8582 5.19019 18.5259 5.19019C12.1936 5.19019 7.04187 10.3419 7.04187 16.6742C7.04187 21.4915 10.0832 25.8312 14.61 27.473C15.0358 27.6274 15.5063 27.4075 15.6609 26.9816C15.8153 26.5557 15.5953 26.0853 15.1694 25.9307C11.2894 24.5235 8.68253 20.8036 8.68253 16.6742C8.68253 11.2465 13.0983 6.83076 18.526 6.83076C23.9536 6.83076 28.3694 11.2465 28.3694 16.6742C28.3694 20.8039 25.7623 24.5239 21.882 25.931C21.4561 26.0854 21.236 26.5559 21.3905 26.9818C21.5115 27.3153 21.8262 27.5227 22.1616 27.5227C22.2545 27.5227 22.3489 27.5068 22.4413 27.4733C26.9683 25.8316 30.0099 21.4918 30.0099 16.6742Z" fill="#3B9670"/>
<path d="M18.5259 26.5173C18.3102 26.5173 18.0986 26.6051 17.946 26.7577C17.7934 26.9103 17.7056 27.1219 17.7056 27.3376C17.7056 27.5534 17.7934 27.765 17.946 27.9176C18.0986 28.0702 18.3102 28.158 18.5259 28.158C18.7417 28.158 18.9533 28.0702 19.1059 27.9176C19.2585 27.765 19.3463 27.5534 19.3463 27.3376C19.3463 27.1219 19.2585 26.9103 19.1059 26.7577C18.9533 26.6051 18.7417 26.5173 18.5259 26.5173Z" fill="#3B9670"/>
</svg>
