<svg width="106" height="36" viewBox="0 0 106 36" fill="none" xmlns="http://www.w3.org/2000/svg">
<path d="M0.398438 25.6882L18.4944 18.1522L0.398438 9.56019V5.81619L23.0064 17.0962V19.4962L0.398438 29.4322V25.6882Z" fill="#3B9670"/>
<path d="M42.5072 35.0002H38.3792V11.0482C38.3792 9.67219 38.3952 8.56819 38.4272 7.7362C38.4592 6.90419 38.5072 6.04019 38.5712 5.14419C38.0592 5.6562 37.5952 6.0882 37.1792 6.4402C36.7632 6.79219 36.2352 7.24019 35.5952 7.78419L31.9472 10.7602L29.7392 7.9282L39.0032 0.728194H42.5072V35.0002Z" fill="#3B9670"/>
<path d="M78.0399 17.8162C78.0399 21.4962 77.6559 24.6642 76.8879 27.3202C76.1199 29.9442 74.9039 31.9602 73.2399 33.3682C71.5759 34.7762 69.3679 35.4802 66.6159 35.4802C62.7439 35.4802 59.8799 33.9282 58.0239 30.8242C56.1999 27.6882 55.2879 23.3522 55.2879 17.8162C55.2879 14.1042 55.6559 10.9362 56.3919 8.31219C57.1599 5.6882 58.3759 3.6882 60.0399 2.31219C61.7039 0.904195 63.8959 0.200195 66.6159 0.200195C70.4559 0.200195 73.3199 1.7522 75.2079 4.8562C77.0959 7.9282 78.0399 12.2482 78.0399 17.8162ZM59.5119 17.8162C59.5119 22.5202 60.0399 26.0402 61.0959 28.3762C62.1839 30.7122 64.0239 31.8802 66.6159 31.8802C69.1759 31.8802 70.9999 30.7282 72.0879 28.4242C73.2079 26.0882 73.7679 22.5522 73.7679 17.8162C73.7679 13.1442 73.2079 9.6402 72.0879 7.3042C70.9999 4.96819 69.1759 3.80019 66.6159 3.80019C64.0239 3.80019 62.1839 4.96819 61.0959 7.3042C60.0399 9.6402 59.5119 13.1442 59.5119 17.8162Z" fill="#3B9670"/>
<path d="M105.509 17.8162C105.509 21.4962 105.125 24.6642 104.357 27.3202C103.589 29.9442 102.373 31.9602 100.709 33.3682C99.0447 34.7762 96.8367 35.4802 94.0847 35.4802C90.2127 35.4802 87.3487 33.9282 85.4927 30.8242C83.6687 27.6882 82.7567 23.3522 82.7567 17.8162C82.7567 14.1042 83.1247 10.9362 83.8607 8.31219C84.6287 5.6882 85.8447 3.6882 87.5087 2.31219C89.1727 0.904195 91.3647 0.200195 94.0847 0.200195C97.9247 0.200195 100.789 1.7522 102.677 4.8562C104.565 7.9282 105.509 12.2482 105.509 17.8162ZM86.9807 17.8162C86.9807 22.5202 87.5087 26.0402 88.5647 28.3762C89.6527 30.7122 91.4927 31.8802 94.0847 31.8802C96.6447 31.8802 98.4687 30.7282 99.5567 28.4242C100.677 26.0882 101.237 22.5522 101.237 17.8162C101.237 13.1442 100.677 9.6402 99.5567 7.3042C98.4687 4.96819 96.6447 3.80019 94.0847 3.80019C91.4927 3.80019 89.6527 4.96819 88.5647 7.3042C87.5087 9.6402 86.9807 13.1442 86.9807 17.8162Z" fill="#3B9670"/>
</svg>
