<svg width="48" height="48" viewBox="0 0 48 48" fill="none" xmlns="http://www.w3.org/2000/svg">
<g clip-path="url(#clip0_207_91858)">
<path d="M31.693 0C26.7863 0 22.4827 2.62996 20.1164 6.55394C18.8837 6.19207 17.6065 6.00832 16.3094 6.00832C14.2583 6.00832 12.288 6.45654 10.4531 7.3405C9.9866 7.56522 9.79066 8.12556 10.0154 8.59206C10.1769 8.92731 10.5118 9.12287 10.8606 9.12287C10.9971 9.12287 11.1358 9.09297 11.2668 9.02978C12.8459 8.26909 14.5424 7.88331 16.3094 7.88331C17.3075 7.88331 18.2918 8.00922 19.2467 8.25794C18.5629 9.87287 18.1844 11.6474 18.1844 13.5086C18.1844 14.0075 18.2036 14.5079 18.2394 15.0079L17.1148 13.1197C16.9456 12.8358 16.6397 12.6619 16.3093 12.6619C15.9788 12.6619 15.6729 12.8358 15.5038 13.1197L13.8635 15.8737H10.6843C10.3471 15.8737 10.0358 16.0548 9.86922 16.348C9.70263 16.6411 9.70629 17.0012 9.87888 17.291L11.4492 19.9277L9.87888 22.5644C9.70629 22.8541 9.70263 23.2142 9.86922 23.5074C10.0358 23.8006 10.3472 23.9817 10.6843 23.9817H13.8635L15.5038 26.7356C15.6729 27.0195 15.9788 27.1934 16.3093 27.1934C16.6397 27.1934 16.9456 27.0195 17.1148 26.7356L18.7549 23.9817H20.8734C21.2302 24.63 21.6188 25.2541 22.039 25.8471C23.0372 27.2559 24.1522 28.4231 25.3488 29.3296C23.0634 33.3464 19.7256 35.7221 16.3094 35.7221C10.2208 35.7221 4.67577 27.9982 4.67577 19.5171C4.67577 17.7503 5.06137 16.0539 5.82205 14.4749C6.04667 14.0084 5.85074 13.4481 5.38424 13.2235C4.91774 12.9989 4.35749 13.1947 4.13268 13.6612C3.2489 15.4961 2.80078 17.4662 2.80078 19.517C2.80078 23.9009 4.20571 28.398 6.6553 31.8552C8.55851 34.5412 10.8856 36.3509 13.395 37.1426L13.1084 39.8933C13.0809 40.1574 13.1667 40.4208 13.3444 40.6181C13.5222 40.8153 13.7754 40.9279 14.0409 40.9279H15.3719V47.0627C15.3719 47.5805 15.7917 48.0002 16.3094 48.0002C16.827 48.0002 17.2469 47.5805 17.2469 47.0627V40.9279H18.5778C18.8433 40.9279 19.0964 40.8153 19.2743 40.6181C19.452 40.4208 19.5378 40.1574 19.5103 39.8933L19.2229 37.1344C22.2045 36.1839 24.9368 33.8019 26.9268 30.347C27.5301 30.6721 28.1485 30.9354 28.7786 31.1343L28.492 33.885C28.4646 34.1491 28.5502 34.4125 28.7281 34.6097C28.9059 34.807 29.159 34.9196 29.4246 34.9196H30.7555V47.0623C30.7555 47.5801 31.1753 47.9998 31.693 47.9998C32.2107 47.9998 32.6305 47.5801 32.6305 47.0623V34.9196H33.9614C34.2269 34.9196 34.48 34.807 34.6578 34.6097C34.8356 34.4125 34.9214 34.1491 34.8939 33.885L34.6073 31.1343C37.1167 30.3425 39.4438 28.5329 41.3471 25.8468C43.7966 22.3896 45.2015 17.8925 45.2015 13.5086C45.2015 6.05988 39.1416 0 31.693 0V0ZM17.5377 39.0528H15.0811L15.2392 37.5357C15.5939 37.5757 15.9507 37.5969 16.3094 37.5969C16.6677 37.5969 17.0244 37.5742 17.3794 37.5331L17.5377 39.0528ZM18.2222 22.1064C17.8918 22.1064 17.5858 22.2804 17.4167 22.5642L16.3094 24.4236L15.202 22.5642C15.0329 22.2804 14.727 22.1064 14.3965 22.1064H12.3339L13.3459 20.4072C13.522 20.1116 13.522 19.7434 13.3459 19.4478L12.3339 17.7486H14.3965C14.7269 17.7486 15.0329 17.5747 15.202 17.2908L16.3094 15.4315L17.4167 17.2908C17.5858 17.5747 17.8918 17.7486 18.2222 17.7486H18.612C18.9126 19.2481 19.3671 20.7164 19.9608 22.1064H18.2222V22.1064ZM32.9212 33.0446H30.4648L30.6229 31.5273C30.9775 31.5674 31.3343 31.5886 31.693 31.5886C32.0517 31.5886 32.4085 31.5675 32.7631 31.5273L32.9212 33.0446ZM31.693 29.7135C25.6044 29.7135 20.0594 21.9896 20.0594 13.5085C20.0594 7.09375 25.2782 1.87499 31.693 1.87499C38.1077 1.87499 43.3265 7.09375 43.3265 13.5086C43.3265 21.9896 37.7815 29.7135 31.693 29.7135Z" fill="#3B9670"/>
<path d="M38.1314 10.3383C37.9649 10.0452 37.6535 9.86403 37.3164 9.86403H34.1371L32.497 7.11013C32.3279 6.82625 32.0219 6.65234 31.6915 6.65234C31.361 6.65234 31.0551 6.82625 30.886 7.11013L29.2457 9.86403H26.0664C25.7292 9.86403 25.4179 10.0452 25.2513 10.3383C25.0847 10.6315 25.0884 10.9916 25.261 11.2812L26.8314 13.918L25.261 16.5547C25.0884 16.8444 25.0847 17.2045 25.2513 17.4976C25.4179 17.7908 25.7293 17.9719 26.0664 17.9719H29.2457L30.886 20.7258C31.0551 21.0097 31.361 21.1836 31.6915 21.1836C32.0219 21.1836 32.3279 21.0097 32.497 20.7258L34.1371 17.9719H37.3164C37.6536 17.9719 37.9649 17.7908 38.1314 17.4976C38.298 17.2045 38.2944 16.8444 38.1218 16.5547L36.5515 13.918L38.1218 11.2812C38.2945 10.9916 38.2981 10.6316 38.1314 10.3383ZM34.6548 14.3977L35.6669 16.0969H33.6043C33.2739 16.0969 32.9679 16.2708 32.7988 16.5547L31.6914 18.414L30.584 16.5547C30.4149 16.2708 30.109 16.0969 29.7785 16.0969H27.7159L28.7279 14.3977C28.904 14.1021 28.904 13.7337 28.7279 13.4382L27.7159 11.739H29.7785C30.1089 11.739 30.4149 11.5651 30.584 11.2812L31.6914 9.42191L32.7988 11.2812C32.9679 11.5651 33.2738 11.739 33.6043 11.739H35.6669L34.6548 13.4382C34.4789 13.7338 34.4789 14.1021 34.6548 14.3977Z" fill="#3B9670"/>
<path d="M7.42225 11.5654C7.93994 11.5654 8.35975 11.1457 8.35975 10.6279C8.35975 10.1101 7.93994 9.69043 7.42225 9.69043H7.4215C6.90381 9.69043 6.48438 10.1101 6.48438 10.6279C6.48438 11.1457 6.90447 11.5654 7.42225 11.5654Z" fill="#3B9670"/>
</g>
<defs>
<clipPath id="clip0_207_91858">
<rect width="48" height="48" fill="white"/>
</clipPath>
</defs>
</svg>
