<svg width="48" height="48" viewBox="0 0 48 48" fill="none" xmlns="http://www.w3.org/2000/svg">
<g clip-path="url(#clip0_207_92118)">
<path d="M45.9844 38.4374H44.576C44.7566 38.0853 44.8594 37.6869 44.8594 37.2646L44.8584 12.8902C44.8584 11.4686 43.7018 10.312 42.2803 10.312H38.4844V9.4533C38.4844 8.77614 37.9335 8.22517 37.2562 8.22517H36.0925V4.69689C36.0925 4.30042 35.8997 3.92645 35.5768 3.69639C35.2538 3.46642 34.8374 3.40642 34.4626 3.53608L32.2478 4.30192C31.8809 4.42886 31.6863 4.82917 31.8131 5.1962C31.9401 5.56314 32.3401 5.75823 32.7074 5.63092L34.6862 4.94664V21.8572L24.7031 25.3095V8.39898L29.8722 6.61145C30.2393 6.48452 30.4338 6.0842 30.3069 5.71717C30.18 5.35023 29.7801 5.15533 29.4127 5.28245L24 7.15417L13.5374 3.53608C13.1626 3.40633 12.7462 3.46642 12.4232 3.69639C12.1003 3.92645 11.9075 4.30042 11.9075 4.69689V8.22508H10.7437C10.0665 8.22508 9.51562 8.77605 9.51562 9.4532V10.3129H5.71875C4.29712 10.3129 3.14062 11.4695 3.14062 12.891L3.14072 15.3914C3.14072 15.7798 3.45553 16.0945 3.84384 16.0945C4.23216 16.0945 4.54697 15.7797 4.54697 15.3914L4.54688 12.8911C4.54688 12.2449 5.07253 11.7192 5.71875 11.7192H9.51562V13.1255H6.65625C6.46978 13.1255 6.29091 13.1995 6.15909 13.3315C6.02719 13.4633 5.95312 13.6421 5.95312 13.8286L5.95406 36.328C5.95406 36.7164 6.26888 37.0312 6.65719 37.0312L41.3438 37.0302C41.5302 37.0302 41.7091 36.9562 41.841 36.8243C41.9728 36.6925 42.0469 36.5136 42.0469 36.3271L42.0459 13.8277C42.0459 13.4393 41.7311 13.1245 41.3428 13.1245H38.4844V11.7183H42.2803C42.9265 11.7183 43.4522 12.244 43.4522 12.8902L43.4531 37.2646C43.4531 37.9108 42.9275 38.4365 42.2812 38.4365L5.71969 38.4374C5.07347 38.4374 4.54781 37.9118 4.54781 37.2655L4.54716 18.4002C4.54716 18.0118 4.23234 17.6971 3.84403 17.6971C3.45572 17.6971 3.14091 18.0119 3.14091 18.4002L3.14156 37.2655C3.14156 37.6874 3.24403 38.0856 3.4245 38.4374H2.01562C0.904219 38.4374 0 39.3416 0 40.453V42.5155C0 43.627 0.904219 44.5313 2.01562 44.5313H29.9701C30.3585 44.5313 30.6732 44.2165 30.6732 43.8281C30.6732 43.4397 30.3585 43.125 29.9701 43.125H2.01562C1.67963 43.125 1.40625 42.8516 1.40625 42.5156V40.4531C1.40625 40.1171 1.67963 39.8438 2.01562 39.8438H19.2656V40.3378C19.2656 41.3061 20.0534 42.0939 21.0217 42.0939H26.9784C27.9467 42.0939 28.7344 41.3062 28.7344 40.3378V39.8438H45.9844C46.3204 39.8438 46.5938 40.1171 46.5938 40.4531V42.5156C46.5938 42.8516 46.3204 43.125 45.9844 43.125H33.0398C32.6514 43.125 32.3367 43.4397 32.3367 43.8281C32.3367 44.2165 32.6514 44.5313 33.0398 44.5313H45.9844C47.0958 44.5313 48 43.627 48 42.5156V40.4531C48 39.3416 47.0958 38.4374 45.9844 38.4374ZM35.2658 23.1446C35.7603 22.9735 36.0925 22.507 36.0925 21.9839V9.63142H37.0781V25.5935H28.1846L35.2658 23.1446ZM13.3137 4.94664L23.2969 8.39898V25.3095L13.3137 21.8572V4.94664ZM10.9219 9.63142H11.9075V21.984C11.9075 22.5071 12.2397 22.9736 12.7343 23.1448L19.8154 25.5936H10.9219V9.63142ZM40.6397 14.5308L40.6406 35.624L7.36022 35.6249L7.35938 14.5317H9.51562V25.7716C9.51562 26.4488 10.0665 26.9997 10.7437 26.9997H37.2562C37.9335 26.9997 38.4844 26.4488 38.4844 25.7716V14.5308H40.6397ZM27.3281 40.3377C27.3281 40.5306 27.1712 40.6875 26.9784 40.6875H21.0217C20.8288 40.6875 20.6719 40.5306 20.6719 40.3377V39.8437H27.3281V40.3377Z" fill="#3B9670"/>
<path d="M33.2365 29.0054H14.7656C14.3773 29.0054 14.0625 29.3201 14.0625 29.7085C14.0625 30.0969 14.3773 30.4116 14.7656 30.4116H33.2365C33.6249 30.4116 33.9396 30.0969 33.9396 29.7085C33.9396 29.3201 33.6248 29.0054 33.2365 29.0054Z" fill="#3B9670"/>
<path d="M26.7444 31.9878H14.7656C14.3773 31.9878 14.0625 32.3025 14.0625 32.6909C14.0625 33.0793 14.3773 33.394 14.7656 33.394H26.7444C27.1329 33.394 27.4476 33.0793 27.4476 32.6909C27.4476 32.3025 27.1328 31.9878 26.7444 31.9878Z" fill="#3B9670"/>
</g>
<defs>
<clipPath id="clip0_207_92118">
<rect width="48" height="48" fill="white"/>
</clipPath>
</defs>
</svg>
