<svg width="48" height="48" viewBox="0 0 48 48" fill="none" xmlns="http://www.w3.org/2000/svg">
<path d="M29.5322 10.4159H25.8572L24.6253 6.71804C24.5817 6.58742 24.4982 6.47383 24.3865 6.39334C24.2747 6.31284 24.1405 6.26953 24.0028 6.26953C23.8651 6.26953 23.7309 6.31284 23.6192 6.39334C23.5075 6.47383 23.4239 6.58742 23.3803 6.71804L22.1477 10.4159H18.4727C18.3429 10.4159 18.216 10.4544 18.108 10.5265C18.0001 10.5987 17.916 10.7012 17.8663 10.8211C17.8167 10.9411 17.8037 11.0731 17.8291 11.2004C17.8544 11.3277 17.917 11.4447 18.0088 11.5364L20.4865 14.0144L19.2332 17.7768C19.19 17.9065 19.1884 18.0465 19.2286 18.1772C19.2689 18.3078 19.3489 18.4227 19.4576 18.5057C19.5662 18.5887 19.6981 18.6356 19.8348 18.64C19.9714 18.6444 20.1061 18.606 20.2198 18.5302L24.0028 16.0083L27.7858 18.5302C27.8996 18.606 28.0342 18.6444 28.1709 18.64C28.3075 18.6356 28.4394 18.5887 28.5481 18.5057C28.6568 18.4227 28.7368 18.3078 28.777 18.1772C28.8173 18.0465 28.8157 17.9065 28.7725 17.7768L27.5181 14.0144L29.9961 11.5364C30.0879 11.4447 30.1505 11.3277 30.1759 11.2004C30.2012 11.0731 30.1883 10.9411 30.1386 10.8211C30.089 10.7012 30.0048 10.5987 29.8969 10.5265C29.7889 10.4544 29.662 10.4159 29.5322 10.4159ZM26.3035 13.3732C26.2172 13.4592 26.1567 13.5676 26.1287 13.6862C26.1006 13.8048 26.1062 13.9288 26.1448 14.0444L26.9222 16.3769L24.367 14.6733C24.2591 14.6014 24.1324 14.563 24.0028 14.563C23.8732 14.563 23.7465 14.6014 23.6387 14.6733L21.0835 16.3769L21.8608 14.0444C21.8994 13.9288 21.905 13.8048 21.877 13.6862C21.849 13.5676 21.7885 13.4592 21.7022 13.3732L20.0578 11.7284H22.6206C22.7585 11.7283 22.8928 11.6848 23.0045 11.604C23.1163 11.5232 23.1998 11.4093 23.2431 11.2784L24.0028 8.99954L24.7626 11.2792C24.806 11.41 24.8895 11.5238 25.0012 11.6046C25.1129 11.6854 25.2472 11.7289 25.3851 11.7292H27.9478L26.3035 13.3732Z" fill="#3B9670"/>
<path d="M44.3272 4.56566C42.483 3.28766 39.6573 3.32816 37.3331 4.52328L37.8022 2.51178C37.8246 2.41568 37.825 2.31576 37.8035 2.21947C37.7819 2.12317 37.7388 2.03299 37.6776 1.95564C37.6163 1.87829 37.5384 1.81576 37.4496 1.77272C37.3608 1.72967 37.2634 1.70722 37.1647 1.70703H10.8416C10.7428 1.70694 10.6452 1.72918 10.5561 1.77211C10.4671 1.81503 10.3889 1.87752 10.3274 1.95491C10.266 2.0323 10.2228 2.12258 10.2011 2.21901C10.1794 2.31544 10.1798 2.41552 10.2022 2.51178L10.6691 4.52216C8.34409 3.32628 5.51922 3.28466 3.67534 4.56453C1.71334 5.92428 1.19772 8.46191 2.26084 11.5249C4.63384 18.36 12.5295 21.5895 16.0233 22.71C17.1381 24.057 18.5778 25.0975 20.2065 25.7333V28.2927C20.2065 28.4667 20.2756 28.6336 20.3987 28.7567C20.5217 28.8798 20.6887 28.9489 20.8627 28.9489H21.5703C21.482 30.6284 21.0072 32.2649 20.1828 33.7309H17.6272C17.4532 33.7309 17.2862 33.8 17.1632 33.9231C17.0401 34.0462 16.971 34.2131 16.971 34.3872V37.5747H14.562C14.4207 37.5747 14.2831 37.6204 14.1698 37.7048C14.0566 37.7893 13.9735 37.908 13.9331 38.0434L11.7228 45.4467C11.6936 45.5446 11.6877 45.648 11.7056 45.7487C11.7234 45.8493 11.7645 45.9444 11.8256 46.0263C11.8866 46.1083 11.966 46.1748 12.0574 46.2207C12.1487 46.2665 12.2495 46.2904 12.3517 46.2904H35.6527C35.755 46.2905 35.8558 46.2667 35.9472 46.2208C36.0386 46.175 36.118 46.1085 36.1791 46.0265C36.2402 45.9445 36.2813 45.8494 36.2991 45.7487C36.3169 45.648 36.3109 45.5446 36.2816 45.4467L34.0713 38.0434C34.0309 37.908 33.9479 37.7893 33.8346 37.7048C33.7213 37.6204 33.5838 37.5747 33.4425 37.5747H31.0346V34.3868C31.0346 34.3005 31.0176 34.2151 30.9845 34.1354C30.9515 34.0558 30.903 33.9834 30.842 33.9225C30.7809 33.8616 30.7084 33.8133 30.6287 33.7804C30.5489 33.7475 30.4635 33.7307 30.3772 33.7309H27.819C26.9945 32.265 26.5197 30.6285 26.4315 28.9489H27.1391C27.2253 28.949 27.3106 28.932 27.3903 28.8991C27.4699 28.8661 27.5423 28.8178 27.6032 28.7568C27.6642 28.6959 27.7125 28.6235 27.7455 28.5438C27.7785 28.4642 27.7954 28.3788 27.7953 28.2927V25.7333C29.4239 25.0974 30.8635 24.0571 31.9785 22.7104C35.4731 21.5895 43.3691 18.3604 45.741 11.5249C46.8063 8.46191 46.2907 5.92428 44.3272 4.56566ZM36.2452 9.21116C38.0265 8.01378 40.2577 7.59341 41.2091 8.30403C41.9966 8.89016 41.7521 10.1895 41.4097 11.1762C40.2075 14.6393 36.771 16.7847 34.215 17.9479L36.2452 9.21116ZM13.7895 17.9487C11.2335 16.7843 7.79659 14.6393 6.59472 11.1762C6.25197 10.1895 6.00897 8.88866 6.79534 8.30403C7.74747 7.59153 9.97759 8.01378 11.7592 9.21116L13.7895 17.9487ZM3.50097 11.0948C2.63284 8.59353 2.96059 6.65816 4.42347 5.64416C6.16122 4.44003 9.05059 4.75578 11.0925 6.34241L11.355 7.47228C9.51747 6.58353 7.34247 6.25841 6.01047 7.25178C5.22522 7.83753 4.47297 9.06866 5.35459 11.6067C6.88197 16.0065 11.46 18.4519 14.2421 19.5702C14.4007 20.0236 14.5902 20.4657 14.8095 20.8932C11.1318 19.4847 5.37334 16.4888 3.50097 11.0948ZM34.7722 44.9779H13.2326L15.051 38.8868H32.9535L34.7722 44.9779ZM29.7221 37.5743H18.2823V35.043H29.7221V37.5743ZM26.3291 33.7305H21.675C22.3943 32.2338 22.8059 30.608 22.8855 28.9493H25.119C25.1982 30.6081 25.6097 32.2341 26.3291 33.7309V33.7305ZM26.4843 27.6368H21.5201V26.1507C23.1504 26.5532 24.8541 26.5532 26.4843 26.1507V27.6368ZM24.0022 25.14C22.6458 25.1436 21.306 24.841 20.0827 24.2549C18.8595 23.6687 17.7843 22.814 16.9372 21.7545C16.926 21.7395 16.914 21.7257 16.9016 21.7118C16.0703 20.6605 15.4822 19.4381 15.1796 18.1324L11.6677 3.01991H36.3367L32.8248 18.1324C32.5222 19.4381 31.9341 20.6605 31.1028 21.7118C31.0905 21.726 31.0781 21.7399 31.0653 21.7553C30.2184 22.8144 29.1435 23.6687 27.9206 24.2548C26.6977 24.8408 25.3583 25.1434 24.0022 25.14ZM44.5035 11.0948C42.6311 16.4888 36.8722 19.4847 33.1935 20.8932C33.4128 20.4658 33.6024 20.0237 33.7608 19.5702C36.5445 18.4519 41.1225 16.0077 42.6483 11.6067C43.5292 9.06866 42.7777 7.83753 41.9921 7.25178C40.6608 6.25841 38.4873 6.58353 36.6476 7.47228L36.9101 6.34278C38.9523 4.75578 41.8413 4.44003 43.5798 5.64453C45.0438 6.65816 45.3716 8.59353 44.5035 11.0948Z" fill="#3B9670"/>
</svg>
