<svg width="53" height="54" viewBox="0 0 53 54" fill="none" xmlns="http://www.w3.org/2000/svg">
<g clip-path="url(#clip0_207_88507)">
<path d="M52.4933 14.9979L35.7335 8.48771C35.3271 8.32992 34.8722 8.53756 34.7174 8.9512C34.5625 9.36524 34.7663 9.82873 35.1727 9.98652L50.0033 15.7473L39.7367 19.7358L26.8247 13.7793C26.4284 13.5964 25.9622 13.7756 25.7831 14.1789C25.6035 14.5827 25.7794 15.0577 26.1753 15.2406L37.6643 20.5408L26.5 24.8774L2.9967 15.7473L26.5 6.61729L32.292 8.86756C32.6976 9.02494 33.1529 8.81771 33.3082 8.40367C33.463 7.99003 33.2592 7.52654 32.8529 7.36875L26.7806 5.00971C26.5999 4.93968 26.4001 4.93926 26.2194 5.00971L0.50666 14.9979C0.201775 15.1166 0 15.4149 0 15.7473V19.4099C0 19.7424 0.201775 20.0407 0.50666 20.1593L8.536 23.2781V26.0573C8.536 26.5002 8.88819 26.8595 9.32288 26.8595C9.75797 26.8595 10.1102 26.5002 10.1102 26.0573V23.8899L26.2194 30.1475C26.31 30.1825 26.405 30.2003 26.5 30.2003C26.595 30.2003 26.69 30.1825 26.7806 30.1475L38.9235 25.4307V38.1232C35.1112 40.1621 30.8363 41.2547 26.5 41.2547C20.5818 41.2547 14.7769 39.222 10.1102 35.5227V29.2655C10.1102 28.8226 9.75797 28.4633 9.32288 28.4633C8.88819 28.4633 8.536 28.8226 8.536 29.2655V35.9112C8.536 36.1547 8.64436 36.385 8.83077 36.537C13.825 40.6137 20.1002 42.8586 26.5 42.8586C30.8161 42.8586 35.0748 41.836 38.9235 39.9207V43.1667C37.655 43.5198 36.7197 44.7035 36.7197 46.1063C36.7197 47.7864 38.0614 49.1537 39.7104 49.1537C41.3597 49.1537 42.7014 47.7864 42.7014 46.1063C42.7014 44.7035 41.7661 43.5198 40.4977 43.1667V39.0736C41.7807 38.33 43.0099 37.4838 44.1696 36.537C44.356 36.385 44.4648 36.1547 44.4648 35.9112V23.2776L52.4933 20.1589C52.7982 20.0407 53 19.7424 53 19.4095V15.7473C53 15.4149 52.7982 15.1166 52.4933 14.9979ZM41.1272 46.1063C41.1272 46.9018 40.4916 47.5495 39.7104 47.5495C38.9296 47.5495 38.2939 46.9018 38.2939 46.1063C38.2939 45.3103 38.9296 44.6627 39.7104 44.6627C40.4916 44.6627 41.1272 45.3103 41.1272 46.1063ZM1.57417 16.9116L25.7127 26.2884V28.2338L1.57417 18.857V16.9116ZM27.2873 28.2338V26.2884L38.9235 21.7681V23.7139L27.2873 28.2338ZM42.8902 35.5223C42.1224 36.1312 41.323 36.694 40.4977 37.2106V24.8189L42.8902 23.8894V35.5223ZM40.4977 23.1021V21.1567L51.4258 16.9116V18.857L40.4977 23.1021Z" fill="#3B9670"/>
</g>
<defs>
<clipPath id="clip0_207_88507">
<rect width="53" height="54" fill="white"/>
</clipPath>
</defs>
</svg>
