<svg width="48" height="48" viewBox="0 0 48 48" fill="none" xmlns="http://www.w3.org/2000/svg">
<path d="M46.0972 1.59424C45.2692 1.59424 28.0009 1.59424 27.1674 1.59424C26.1185 1.59424 25.2656 2.44751 25.2656 3.49597V4.77551C25.2656 5.82397 26.1189 6.67725 27.1674 6.67725H46.0972C47.146 6.67725 47.9989 5.82397 47.9989 4.77551V3.49634C47.9989 2.44751 47.1456 1.59424 46.0972 1.59424ZM27.1674 5.271C26.8942 5.271 26.6719 5.04871 26.6719 4.77551V3.49634C26.6719 3.22314 26.8942 3.00085 27.1674 3.00085H35.929V5.271H27.1674ZM46.5927 4.77551C46.5927 5.04871 46.3704 5.271 46.0972 5.271H37.3356V3.00049H46.0972C46.3704 3.00049 46.5927 3.22278 46.5927 3.49597V4.77551Z" fill="#3B9670"/>
<path d="M46.0972 17.4795C45.2692 17.4795 28.0009 17.4795 27.1674 17.4795C26.1185 17.4795 25.2656 18.3328 25.2656 19.3812V20.6604C25.2656 21.7092 26.1189 22.5625 27.1674 22.5625H46.0972C47.146 22.5625 47.9989 21.7092 47.9989 20.6604V19.3812C47.9989 18.3328 47.1456 17.4795 46.0972 17.4795ZM27.1674 21.1559C26.8942 21.1559 26.6719 20.9336 26.6719 20.6604V19.3812C26.6719 19.108 26.8942 18.8857 27.1674 18.8857H35.929V21.1559H27.1674ZM46.5927 20.6604C46.5927 20.9336 46.3704 21.1562 46.0972 21.1562H37.3356V18.8857H46.0972C46.3704 18.8857 46.5927 19.108 46.5927 19.3812V20.6604Z" fill="#3B9670"/>
<path d="M46.0972 9.53662C45.1051 9.53662 28.1796 9.53662 27.1674 9.53662C26.25 9.53662 25.4821 10.1899 25.3044 11.0557C25.2788 11.1794 25.2656 11.3076 25.2656 11.4387V12.7179C25.2656 13.5697 25.8289 14.2926 26.6027 14.5339C26.781 14.5896 26.9707 14.6196 27.1674 14.6196H34.9915C35.38 14.6196 35.6949 14.3047 35.6949 13.9165C35.6949 13.528 35.38 13.2134 34.9915 13.2134H27.1674C26.8942 13.2134 26.6719 12.9911 26.6719 12.7179V11.4387C26.6719 11.1652 26.8942 10.9429 27.1674 10.9429H41.0072V13.2134H38.2731C37.8845 13.2134 37.5699 13.528 37.5699 13.9165C37.5699 14.3047 37.8845 14.6196 38.2731 14.6196H46.0972C47.146 14.6196 47.9989 13.7664 47.9989 12.7179V11.4387C47.9989 10.3899 47.1456 9.53662 46.0972 9.53662ZM46.5927 12.7175C46.5927 12.9907 46.3704 13.213 46.0972 13.213H42.4135V10.9429H46.0972C46.3704 10.9429 46.5927 11.1652 46.5927 11.4384V12.7175Z" fill="#3B9670"/>
<path d="M1.71863 46.3489H28.4799C29.4276 46.3489 30.1985 45.578 30.1985 44.6302V38.4977C30.1985 38.1095 29.8835 37.7946 29.4954 37.7946C29.1068 37.7946 28.7922 38.1095 28.7922 38.4977V44.6302C28.7922 44.8024 28.652 44.9426 28.4799 44.9426H25.0122V32.1029C25.0122 31.7144 24.6976 31.3998 24.3091 31.3998C23.9209 31.3998 23.606 31.7144 23.606 32.1029V44.9426H16.6846L18.6636 42.7655C18.8979 42.5081 19.0082 42.1411 18.9587 41.7848C18.9576 41.7778 18.9569 41.7709 18.9554 41.7639L17.0032 30.229L17.4917 29.494C17.7316 29.6647 18.104 29.9943 18.7053 29.8441C19.0444 29.7595 19.3282 29.5317 19.4843 29.219H19.4846L21.5273 25.1244L26.1841 26.928C26.3566 27.0023 28.7922 28.1039 28.7922 31.0028V35.2164C28.7922 35.6046 29.1068 35.9196 29.4954 35.9196C29.8835 35.9196 30.1985 35.6046 30.1985 35.2164V31.0028C30.1985 27.1027 26.8575 25.6843 26.7155 25.6257C26.7111 25.6239 26.7067 25.6221 26.7019 25.6206L18.9122 22.6038V20.8269C20.1442 19.8612 21.0011 18.4396 21.2267 16.8176C22.7384 16.6913 23.8601 15.4561 23.8601 13.9883C23.8601 13.3104 23.6177 12.6622 23.1852 12.1554V9.75085C23.1852 5.25342 19.5264 1.59424 15.0289 1.59424C10.5315 1.59424 6.87268 5.25342 6.87268 9.75085V12.2188C6.43542 12.7205 6.19812 13.3357 6.19812 13.9883C6.19812 15.4495 7.31213 16.6917 8.83301 16.8176C9.06079 18.3945 9.91296 19.9158 11.2775 20.9258V22.6041L3.49658 25.6206C3.49219 25.6224 3.48779 25.6243 3.48303 25.6261C3.34094 25.6843 0 27.1027 0 31.0028V44.6302C0 45.578 0.770874 46.3489 1.71863 46.3489ZM15.097 44.5984L12.642 41.8979L14.5247 30.775H15.6691L17.5518 41.8979L15.097 44.5984ZM11.8575 28.3694L9.98401 24.6143L11.7579 23.9272L14.0786 26.7917C13.0386 27.5304 11.985 28.2789 11.8575 28.3694ZM15.8862 29.3688H14.3075L13.8497 28.6796L15.097 27.7937L16.3444 28.6792L15.8862 29.3688ZM20.2101 24.6146L18.3365 28.3694C18.3069 28.3481 17.5994 27.8457 16.1133 26.7899L18.4332 23.9261L20.2101 24.6146ZM21.2871 15.3898V12.589C22.0012 12.7322 22.4535 13.3331 22.4535 13.9883C22.4535 14.6584 21.9877 15.2495 21.2871 15.3898ZM8.27893 9.75049C8.27893 6.02869 11.3071 3.00049 15.0289 3.00049C18.7507 3.00049 21.7789 6.02869 21.7789 9.75049V11.2582C21.6193 11.2135 21.4548 11.1827 21.2871 11.1652V11.1469C21.2871 10.8125 21.2461 10.6642 20.8751 10.2361C20.6056 9.9248 20.202 9.50916 19.2144 8.44751C18.8115 8.01501 18.16 7.93518 17.6656 8.25854C15.3955 9.7417 12.6259 10.4869 10.0719 10.3035C9.49512 10.2595 8.9718 10.6327 8.81653 11.1838C8.66602 11.2025 8.45947 11.2446 8.27893 11.3018V9.75049ZM7.60437 13.9883C7.60437 13.3284 8.1416 12.7937 8.77112 12.6238V15.3898C8.07166 15.2499 7.60437 14.6603 7.60437 13.9883ZM10.1777 15.9636C10.1777 12.7941 10.1777 12.6696 10.1777 11.7192C12.925 11.8679 15.8617 11.0743 18.2963 9.52563C19.1741 10.4675 19.708 11.0249 19.8805 11.2329V15.9636C19.8805 18.6036 17.7264 20.7357 15.1084 20.7357C12.1688 20.7357 10.1777 18.4597 10.1777 15.9636ZM17.506 21.6578V22.8363L15.097 25.8099L12.6837 22.8312V21.701C14.1068 22.2548 15.8994 22.3364 17.506 21.6578ZM1.40625 31.0028C1.40625 28.0922 3.86206 26.9932 4.01367 26.9283L8.66675 25.1244L10.7098 29.219C10.8658 29.5314 11.1497 29.7592 11.4884 29.8441C12.0828 29.9928 12.4563 29.6691 12.7028 29.494L13.1909 30.229L11.2386 41.7639C11.2375 41.7709 11.2365 41.7782 11.2354 41.7852C11.1863 42.1418 11.2965 42.5084 11.5305 42.7659L13.5095 44.9426H6.59253V32.1029C6.59253 31.7144 6.27795 31.3998 5.8894 31.3998C5.50085 31.3998 5.18628 31.7144 5.18628 32.1029V44.9426H1.71863C1.54651 44.9426 1.40625 44.8024 1.40625 44.6302V31.0028Z" fill="#3B9670"/>
</svg>
