<svg width="60" height="48" viewBox="0 0 60 48" fill="none" xmlns="http://www.w3.org/2000/svg">
<path d="M45.9267 0.75H3.22509C1.96386 0.75 0.9375 1.7595 0.9375 3V36C0.9375 37.2405 1.96386 38.25 3.22509 38.25H23.8134V38.6625C23.8134 39.468 24.0055 40.2757 24.37 40.9972L26.101 44.4255V47.2162L39.8265 47.2515V44.4997L41.0465 42.9C41.7351 41.997 42.1141 40.8787 42.1141 39.75V38.25H45.9267C47.1879 38.25 48.2143 37.2405 48.2143 36V3C48.2143 1.7595 47.1879 0.75 45.9267 0.75ZM3.22509 2.25H45.9267C46.3469 2.25 46.6892 2.58675 46.6892 3V9.75H2.46256V3C2.46256 2.58675 2.80493 2.25 3.22509 2.25ZM30.6761 18.75C29.4149 18.75 28.3885 19.7595 28.3885 21V21.75H19.2382V14.25H43.6391V21.75H32.9637V21C32.9637 19.7595 31.9373 18.75 30.6761 18.75ZM28.3885 30.9427C27.366 29.8845 25.9149 29.2185 24.2854 29.2185C23.185 29.2185 22.2891 30.099 22.2883 31.182C22.2883 31.485 22.3615 31.7887 22.4988 32.061L23.3581 33.75H19.2382V26.25H28.3885V30.9427ZM40.589 39.75C40.589 40.5562 40.3183 41.3557 39.8265 42L38.3014 44.0002V45.7485L27.626 45.72V44.0737L25.7357 40.3297C25.4757 39.8145 25.3384 39.2385 25.3384 38.6625V35.5815C25.3384 34.737 25.1356 33.8917 24.752 33.1372L23.8637 31.3897C23.8309 31.326 23.8134 31.2532 23.8134 31.182C23.8134 30.9262 24.0253 30.7185 24.3578 30.7185C26.5806 30.7185 28.3885 32.4975 28.3885 34.6837V35.9685V37.4685H29.9136V35.9685V34.6837V21C29.9136 20.5867 30.256 20.25 30.6761 20.25C31.0963 20.25 31.4387 20.5867 31.4387 21V30V33H32.9637V30C32.9637 29.5867 33.3061 29.25 33.7262 29.25C34.1464 29.25 34.4888 29.5867 34.4888 30V33H36.0138V30C36.0138 29.5867 36.3562 29.25 36.7764 29.25C37.1965 29.25 37.5389 29.5867 37.5389 30V31.5V33H39.0639V31.5C39.0639 31.0867 39.4063 30.75 39.8265 30.75C40.2466 30.75 40.589 31.0867 40.589 31.5V39.75ZM39.8265 29.25C39.5253 29.25 39.2393 29.3107 38.9755 29.415C38.7124 28.4587 37.8309 27.75 36.7764 27.75C36.1884 27.75 35.657 27.9757 35.2513 28.335C34.8456 27.975 34.3141 27.75 33.7262 27.75C33.4578 27.75 33.2031 27.804 32.9637 27.888V26.25H43.6391V33.75H42.1141V31.5C42.1141 30.2595 41.0877 29.25 39.8265 29.25ZM45.9267 36.75H42.1141V35.25H45.1642V24.75H32.9637V23.25H45.1642V12.75H17.7131V23.25H28.3885V24.75H17.7131V35.25H23.7935C23.8035 35.3602 23.8134 35.4712 23.8134 35.5815V36.75H3.22509C2.80493 36.75 2.46256 36.4132 2.46256 36V11.25H46.6892V36C46.6892 36.4132 46.3469 36.75 45.9267 36.75Z" fill="#3C9670"/>
<path d="M8.56345 3.75H3.98828V8.25H8.56345V3.75ZM7.0384 6.75H5.51334V5.25H7.0384V6.75Z" fill="#3C9670"/>
<path d="M14.665 3.75H10.0898V8.25H14.665V3.75ZM13.14 6.75H11.6149V5.25H13.14V6.75Z" fill="#3C9670"/>
<path d="M20.7627 3.75H16.1875V8.25H20.7627V3.75ZM19.2376 6.75H17.7126V5.25H19.2376V6.75Z" fill="#3C9670"/>
<path d="M20.7617 15.75H22.2868V17.25H20.7617V15.75Z" fill="#3C9670"/>
<path d="M23.8125 15.75H42.1132V17.25H23.8125V15.75Z" fill="#3C9670"/>
<path d="M34.4883 18.75H42.1136V20.25H34.4883V18.75Z" fill="#3C9670"/>
<path d="M20.7617 18.75H26.8619V20.25H20.7617V18.75Z" fill="#3C9670"/>
<path d="M5.51172 23.25H16.1871V12.75H5.51172V23.25ZM7.03678 14.25H14.6621V21.75H7.03678V14.25Z" fill="#3C9670"/>
<path d="M10.0915 18.4395L9.10556 17.4697L8.02734 18.5302L10.0915 20.5605L14.4433 16.2802L13.365 15.2197L10.0915 18.4395Z" fill="#3C9670"/>
<path d="M5.51172 35.25H16.1871V24.75H5.51172V35.25ZM7.03678 26.25H14.6621V33.75H7.03678V26.25Z" fill="#3C9670"/>
<path d="M10.0915 30.4395L9.10556 29.4697L8.02734 30.5302L10.0915 32.5605L14.4433 28.2802L13.365 27.2197L10.0915 30.4395Z" fill="#3C9670"/>
</svg>
