<svg width="48" height="48" viewBox="0 0 48 48" fill="none" xmlns="http://www.w3.org/2000/svg">
<path d="M2.56716 29.4452C2.724 29.8703 2.97112 30.253 3.28734 30.5666C3.84806 31.1273 4.61888 31.4754 5.46919 31.4754C6.31697 31.4754 7.09031 31.1273 7.65094 30.5666C8.21166 30.006 8.55975 29.2326 8.55975 28.3848V26.6655C7.90875 26.7213 7.33734 26.5804 6.89091 26.3943C6.85097 26.5883 6.80587 26.777 6.74738 26.963C6.52678 27.6805 6.15741 28.3343 5.57278 28.8047C4.98019 29.2831 4.19362 29.5594 3.15178 29.5062C2.96578 29.4982 2.77172 29.477 2.56716 29.4452ZM20.7818 24.8398H26.9632V22.8971H22.2036C21.8129 22.8971 21.4568 23.0593 21.199 23.317C20.9412 23.5748 20.7818 23.9283 20.7818 24.3189V24.8398ZM26.9631 26.2456H20.7817V28.3848C20.7817 29.2325 21.1298 30.0059 21.6906 30.5665C22.2512 31.1272 23.0245 31.4753 23.8723 31.4753C24.7226 31.4753 25.496 31.1272 26.0542 30.5665C26.6148 30.0059 26.963 29.2325 26.963 28.3848V26.2456H26.9631ZM46.2301 30.9387C46.6074 31.138 46.9396 31.4091 47.2133 31.7306C47.705 32.31 48 33.0567 48 33.8672V38.6081C48 38.9961 47.6864 39.3096 47.2985 39.3096C46.9105 39.3096 46.5942 38.996 46.5942 38.6081V33.8672C46.5942 33.3995 46.4241 32.9689 46.1424 32.6368C45.8926 32.3418 45.5551 32.1239 45.1698 32.0203C44.4284 32.5623 43.5167 32.8813 42.5335 32.8813C41.5158 32.8813 40.5749 32.5412 39.8175 31.9645C39.6741 31.9804 39.5358 32.0204 39.4029 32.0815C39.2222 32.1664 39.0575 32.2967 38.9245 32.4721L35.1482 37.4735C35.0153 37.6489 34.8081 37.7552 34.5876 37.7552H29.7483C29.3895 37.7552 29.0653 37.8987 28.8315 38.1325C28.5976 38.369 28.4514 38.6932 28.4514 39.0494C28.4514 39.4081 28.5976 39.7323 28.8315 39.9662C29.0653 40.2 29.3895 40.3462 29.7483 40.3462H35.5282C35.7596 40.3462 35.9376 40.3223 36.1582 40.2107C36.5675 40.006 36.9502 39.3843 37.2292 39.0122L39.7299 35.7036C39.9638 35.3927 40.4022 35.3315 40.7131 35.5654C41.0213 35.7993 41.0825 36.2403 40.8487 36.5487L38.4702 39.7004V45.8285H46.5942V41.7917C46.5942 41.4037 46.9104 41.0902 47.2985 41.0902C47.6865 41.0902 48 41.4038 48 41.7917V46.5327C48 46.9207 47.6864 47.2342 47.2985 47.2342C31.7652 47.2342 16.2348 47.2342 0.70425 47.2342C0.316312 47.2342 0 46.9206 0 46.5327V41.7917C0 41.4037 0.316312 41.0902 0.70425 41.0902C1.09228 41.0902 1.40578 41.4038 1.40578 41.7917V45.8285H9.5325V39.7004L7.15144 36.5487C6.91762 36.2403 6.97875 35.7993 7.28972 35.5654C7.59797 35.3315 8.03906 35.3927 8.27297 35.7036L10.7178 38.9404C10.941 39.2354 11.1643 39.5329 11.3874 39.8307C11.5149 39.998 11.6718 40.1256 11.8446 40.2107C12.0385 40.309 12.2193 40.3462 12.4319 40.3462H18.2544C18.6106 40.3462 18.9348 40.2 19.1712 39.9662C19.4051 39.7323 19.5486 39.4081 19.5486 39.0494C19.5486 38.6932 19.4051 38.369 19.1712 38.1325C18.9348 37.8987 18.6106 37.7552 18.2544 37.7552H13.4125C13.1999 37.7552 12.99 37.6569 12.8519 37.4735L9.07556 32.4721C8.86022 32.1877 8.53866 32.0044 8.18269 31.9645C7.42791 32.5385 6.48722 32.8813 5.46938 32.8813C4.48612 32.8813 3.57187 32.5624 2.8305 32.023C2.45316 32.1213 2.11828 32.3366 1.86844 32.6236C1.58138 32.9583 1.40597 33.3916 1.40597 33.8673V38.6082C1.40597 38.9962 1.09238 39.3097 0.704437 39.3097C0.3165 39.3097 0.0001875 38.9961 0.0001875 38.6082V33.8673C0.0001875 33.0461 0.305813 32.2888 0.808031 31.7068C1.07916 31.3959 1.40597 31.1328 1.77272 30.9388C1.24922 30.1867 0.972844 29.2991 0.972844 28.3849V24.319C0.972844 23.5403 1.28906 22.8334 1.80197 22.3206C2.31497 21.8104 3.01912 21.4915 3.79772 21.4915H7.13812C7.91681 21.4915 8.62369 21.8103 9.1365 22.3206C9.6495 22.8335 9.96572 23.5404 9.96572 24.319V28.3849C9.96572 29.2858 9.69731 30.1283 9.23747 30.8325C9.61753 31.0238 9.939 31.2869 10.1968 31.6271L13.7606 36.3468H16.5748V33.4953C16.5748 32.6875 17.0027 31.9566 17.6962 31.3374C18.2332 30.8591 18.94 30.4418 19.7213 30.1124C19.4981 29.5782 19.376 28.9962 19.376 28.3849V25.544V24.3189C19.376 23.5402 19.6948 22.8333 20.2052 22.3205C20.7181 21.8103 21.425 21.4914 22.2036 21.4914H27.6673C28.0554 21.4914 28.3717 21.8076 28.3717 22.1957V25.5441V28.3849C28.3717 28.9616 28.2601 29.5144 28.0608 30.0246C28.9005 30.3542 29.6605 30.7793 30.2347 31.2736C30.9707 31.9061 31.4252 32.6608 31.4252 33.4953V36.3467H34.2394L37.8032 31.627C38.0663 31.2814 38.3958 31.0157 38.7653 30.8351C38.3028 30.1282 38.0344 29.2858 38.0344 28.3848V24.3189C38.0344 23.5402 38.3533 22.8333 38.8636 22.3205C39.3765 21.8103 40.0834 21.4914 40.862 21.4914H44.2026C44.9812 21.4914 45.6881 21.8103 46.2009 22.3205C46.7111 22.8334 47.0301 23.5403 47.0301 24.3189V28.3848C47.03 29.2989 46.751 30.1865 46.2301 30.9387ZM45.4328 29.4452C45.2309 29.477 45.0342 29.4982 44.8482 29.5062C43.8091 29.5593 43.0224 29.283 42.4298 28.8047C41.8425 28.3343 41.4731 27.6806 41.2525 26.963C41.1967 26.777 41.1489 26.5883 41.1116 26.3943C40.6626 26.5803 40.0939 26.7212 39.4402 26.6655V28.3848C39.4402 29.2326 39.7882 30.006 40.349 30.5666C40.9096 31.1273 41.683 31.4754 42.5334 31.4754C43.3811 31.4754 44.1546 31.1273 44.7153 30.5666C45.029 30.253 45.276 29.8703 45.4328 29.4452ZM39.4402 25.257C40.3782 25.3898 41.0638 24.845 41.1861 24.7387C41.3243 24.6218 41.4545 24.5501 41.6432 24.542C42.0312 24.5235 42.358 24.8211 42.3766 25.2091C42.4006 25.6662 42.4642 26.1287 42.5945 26.5511C42.738 27.0214 42.9638 27.436 43.3068 27.7124C43.6443 27.9835 44.1201 28.1376 44.7817 28.1057C45.0368 28.0923 45.3158 28.0526 45.6241 27.9834V24.3187C45.6241 23.9281 45.462 23.5746 45.2042 23.3168C44.9465 23.0591 44.5929 22.8969 44.2024 22.8969H40.8619C40.4712 22.8969 40.1177 23.0591 39.86 23.3168C39.6022 23.5746 39.4402 23.9281 39.4402 24.3187V25.257ZM8.55984 25.257V24.3188C8.55984 23.9282 8.40047 23.5747 8.14266 23.3169C7.88494 23.0592 7.52878 22.897 7.13812 22.897H3.79753C3.40959 22.897 3.05344 23.0592 2.79562 23.3169C2.53791 23.5747 2.37844 23.9282 2.37844 24.3188V27.9835C2.68406 28.0526 2.96306 28.0924 3.21825 28.1058C3.88003 28.1377 4.35572 27.9835 4.69313 27.7125C5.03597 27.4362 5.26181 27.0215 5.40806 26.5512C5.53828 26.1287 5.60203 25.6663 5.62331 25.2092C5.64187 24.8211 5.97141 24.5236 6.35672 24.5421C6.53747 24.5502 6.67556 24.6166 6.8085 24.7335C6.90694 24.8211 7.60322 25.3924 8.55984 25.257ZM20.4736 31.3214C19.74 31.6057 19.0916 31.9671 18.6292 32.3818C18.2279 32.7378 17.9807 33.1205 17.9807 33.4953V36.3467H18.2544C18.9986 36.3467 19.6762 36.6496 20.1652 37.1386C20.6542 37.6276 20.9572 38.3026 20.9572 39.0494C20.9572 39.5197 20.8349 39.9609 20.625 40.3462H27.375C27.1651 39.9609 27.0455 39.5197 27.0455 39.0494C27.0455 38.3026 27.3484 37.6276 27.8375 37.1386C28.3265 36.6496 29.0014 36.3467 29.7482 36.3467H30.0193V33.4953C30.0193 33.1072 29.7535 32.7086 29.323 32.3392C28.8181 31.9061 28.1165 31.5314 27.3352 31.247C27.2448 31.356 27.1492 31.4623 27.0508 31.5606C26.235 32.3764 25.1108 32.8814 23.8725 32.8814C22.6367 32.8814 21.51 32.3764 20.6968 31.5606C20.6197 31.4834 20.5452 31.4038 20.4736 31.3214ZM5.85984 5.97156C5.47181 5.97156 5.15831 5.65534 5.15831 5.26731C5.15831 4.87928 5.47191 4.56578 5.85984 4.56578H18.8763C19.2643 4.56578 19.5779 4.87937 19.5779 5.26731C19.5779 5.65534 19.2642 5.97156 18.8763 5.97156H5.85984ZM5.85984 13.37C5.47181 13.37 5.15831 13.0538 5.15831 12.6658C5.15831 12.2778 5.47191 11.9615 5.85984 11.9615H12.3682C12.7562 11.9615 13.0724 12.2778 13.0724 12.6658C13.0724 13.0538 12.7562 13.37 12.3682 13.37H5.85984ZM5.85984 9.67084C5.47181 9.67084 5.15831 9.35453 5.15831 8.96659C5.15831 8.57856 5.47191 8.26506 5.85984 8.26506H18.8763C19.2643 8.26506 19.5779 8.57866 19.5779 8.96659C19.5779 9.35453 19.2642 9.67084 18.8763 9.67084H5.85984ZM19.5965 17.1676C19.6948 17.4413 19.8516 17.6857 20.051 17.885C20.4071 18.2438 20.9014 18.467 21.4514 18.467H25.5838C25.9718 18.467 26.2853 18.7806 26.2853 19.1713C26.2853 19.5593 25.9718 19.8728 25.5838 19.8728H21.4514C20.5133 19.8728 19.6682 19.4902 19.0569 18.8736C18.5999 18.414 18.2756 17.824 18.1374 17.1676H8.334L5.15034 20.3512C5.02284 20.4788 4.84744 20.5585 4.65075 20.5585C4.26272 20.5585 3.9465 20.2449 3.9465 19.857V17.1092C3.05353 16.9603 2.25356 16.5325 1.63978 15.9159C0.866437 15.1452 0.388125 14.0795 0.388125 12.9049V5.02825C0.388125 3.85628 0.866531 2.79062 1.63978 2.01737C2.41041 1.24666 3.47606 0.765625 4.65075 0.765625H20.0857C21.2602 0.765625 22.3259 1.24666 23.0965 2.01737C23.8699 2.79062 24.3482 3.85628 24.3482 5.02825V6.33044H36.2912C37.2239 6.33044 38.0691 6.7105 38.6829 7.32438C39.2968 7.93825 39.6769 8.78331 39.6769 9.71613V16.4874C39.6769 17.4202 39.2968 18.2653 38.6829 18.8792C38.2284 19.3337 37.6439 19.6605 36.9928 19.7987V22.5625C36.9928 22.7405 36.9263 22.9212 36.7882 23.0595C36.5144 23.3331 36.068 23.3331 35.7941 23.0595L32.6078 19.8731H28.7677C28.3797 19.8731 28.0635 19.5595 28.0635 19.1716C28.0635 18.7809 28.3797 18.4673 28.7677 18.4673H32.9002C33.0968 18.4673 33.2722 18.5471 33.3997 18.6772L35.5868 20.8643V19.1715C35.5868 18.7808 35.9031 18.4672 36.2912 18.4672C36.8332 18.4672 37.3302 18.244 37.689 17.8852C38.0478 17.5265 38.271 17.0322 38.271 16.4874V9.71613C38.271 9.17134 38.0478 8.67709 37.689 8.31831C37.3302 7.95953 36.8332 7.73631 36.2912 7.73631H24.3481V12.9051C24.3481 14.0797 23.8698 15.1454 23.0964 15.9161C22.3257 16.6893 21.2601 17.1677 20.0856 17.1677H19.5965V17.1676ZM8.04159 15.7618H20.0856C20.8722 15.7618 21.5843 15.4402 22.1026 14.9221C22.6208 14.4038 22.9423 13.689 22.9423 12.9049V5.02825C22.9423 4.24431 22.6208 3.52947 22.1026 3.01122C21.5844 2.49297 20.8722 2.17141 20.0856 2.17141H4.65066C3.864 2.17141 3.15178 2.49297 2.63353 3.01122C2.11538 3.52937 1.79372 4.24422 1.79372 5.02825V12.905C1.79372 13.689 2.11538 14.4038 2.63353 14.9222C3.15169 15.4403 3.864 15.7619 4.65066 15.7619C5.03869 15.7619 5.35219 16.0781 5.35219 16.4661V18.159L7.54462 15.9692C7.68291 15.8309 7.86094 15.7618 8.04159 15.7618ZM37.0643 41.7519H10.9384V45.8284H37.0644V41.7519H37.0643Z" fill="#3C9670"/>
</svg>
