<svg width="48" height="48" viewBox="0 0 48 48" fill="none" xmlns="http://www.w3.org/2000/svg">
<g clip-path="url(#clip0_207_91845)">
<path d="M13.5 27C20.9439 27 27 20.9439 27 13.5C27 6.05606 20.9439 0 13.5 0C6.05606 0 0 6.05606 0 13.5C0 20.9439 6.05606 27 13.5 27ZM13.5 1.875C19.9101 1.875 25.125 7.08994 25.125 13.5C25.125 19.9101 19.9101 25.125 13.5 25.125C7.08994 25.125 1.875 19.9101 1.875 13.5C1.875 7.08994 7.08994 1.875 13.5 1.875Z" fill="#3B9670"/>
<path d="M10.579 19.6389C10.7109 19.7029 10.8504 19.7333 10.9878 19.7333C11.3356 19.7333 11.6697 19.5389 11.8319 19.2051L16.9904 8.58264C17.2166 8.11689 17.0223 7.55598 16.5566 7.32976C16.0907 7.10354 15.5299 7.29779 15.3037 7.76354L10.1452 18.386C9.91899 18.8517 10.1131 19.4126 10.579 19.6389Z" fill="#3B9670"/>
<path d="M9.00837 11.9257C10.6629 11.9257 12.0088 10.5798 12.0088 8.92527C12.0088 7.27077 10.6629 5.9248 9.00837 5.9248C7.35387 5.9248 6.00781 7.27068 6.00781 8.92518C6.00781 10.5797 7.35387 11.9257 9.00837 11.9257ZM9.00837 7.79971C9.629 7.79971 10.1338 8.30465 10.1338 8.92518C10.1338 9.54571 9.6289 10.0506 9.00837 10.0506C8.38784 10.0506 7.88291 9.54571 7.88291 8.92518C7.88291 8.30465 8.38775 7.79971 9.00837 7.79971Z" fill="#3B9670"/>
<path d="M15.1562 18.0737C15.1562 19.7282 16.5022 21.0742 18.1567 21.0742C19.8112 21.0742 21.1572 19.7282 21.1572 18.0737C21.1572 16.4192 19.8112 15.0732 18.1567 15.0732C16.5022 15.0732 15.1562 16.4192 15.1562 18.0737ZM18.1567 16.9482C18.7773 16.9482 19.2822 17.4532 19.2822 18.0737C19.2822 18.6942 18.7773 19.1992 18.1567 19.1992C17.5362 19.1992 17.0313 18.6942 17.0313 18.0737C17.0313 17.4532 17.5361 16.9482 18.1567 16.9482Z" fill="#3B9670"/>
<path d="M47.0625 46.1253H44.25V35.8193C44.25 35.3015 43.8303 34.8818 43.3125 34.8818C42.7947 34.8818 42.375 35.3015 42.375 35.8193V46.1253H34.5V19.1181C34.5 18.6004 34.0803 18.1806 33.5625 18.1806H32.0758L38.4375 11.819L44.7992 18.1806H43.3125C42.7947 18.1806 42.375 18.6004 42.375 19.1181V27.3818C42.375 27.8996 42.7947 28.3193 43.3125 28.3193C43.8303 28.3193 44.25 27.8996 44.25 27.3818V20.0556H47.0625C47.4416 20.0556 47.7835 19.8272 47.9287 19.4769C48.0738 19.1267 47.9935 18.7234 47.7255 18.4552L39.1005 9.83023C38.7344 9.46414 38.1408 9.46414 37.7746 9.83023L29.1496 18.4552C28.8815 18.7234 28.8013 19.1266 28.9464 19.4769C29.0916 19.8273 29.4334 20.0556 29.8126 20.0556H32.6251V46.1253H29.8126V29.7659C29.8126 29.2481 29.3929 28.8284 28.8751 28.8284H19.125C18.6072 28.8284 18.1875 29.2481 18.1875 29.7659V46.1253H15.375V36.0003C15.375 35.4825 14.9553 35.0628 14.4375 35.0628H4.6875C4.16972 35.0628 3.75 35.4825 3.75 36.0003V46.1253H0.9375C0.419719 46.1253 0 46.545 0 47.0628C0 47.5805 0.419719 48.0003 0.9375 48.0003H47.0625C47.5803 48.0003 48 47.5805 48 47.0628C48 46.545 47.5803 46.1253 47.0625 46.1253ZM5.625 46.1253V36.9378H13.5V46.1253H5.625ZM20.0625 46.1253V30.7034H27.9375V46.1253H20.0625Z" fill="#3B9670"/>
<path d="M43.3164 30.6631C43.0698 30.6631 42.828 30.7634 42.6536 30.9378C42.4792 31.1121 42.3789 31.354 42.3789 31.6006C42.3789 31.8471 42.4792 32.089 42.6536 32.2634C42.828 32.4378 43.0698 32.5381 43.3164 32.5381C43.563 32.5381 43.8048 32.4378 43.9792 32.2634C44.1536 32.089 44.2539 31.8471 44.2539 31.6006C44.2539 31.354 44.1536 31.1121 43.9792 30.9378C43.8048 30.7634 43.563 30.6631 43.3164 30.6631Z" fill="#3B9670"/>
</g>
<defs>
<clipPath id="clip0_207_91845">
<rect width="48" height="48" fill="white"/>
</clipPath>
</defs>
</svg>
