<svg width="48" height="48" viewBox="0 0 48 48" fill="none" xmlns="http://www.w3.org/2000/svg">
<path d="M44.2303 42.9336C43.8634 42.9336 43.4967 42.8194 43.1837 42.5911L41.0231 41.0141L38.8624 42.5911C38.2378 43.0469 37.3979 43.0478 36.7724 42.5933C36.1468 42.1388 35.8881 41.3397 36.1286 40.6049L36.9609 38.0626L34.7855 36.4894C34.1499 36.0297 33.8952 35.2504 34.1368 34.5042C34.3784 33.7579 35.0413 33.2757 35.8258 33.2757H38.5125L39.3339 30.7345C39.5753 29.9879 40.2383 29.5055 41.0231 29.5054C41.8079 29.5054 42.4709 29.9878 42.7124 30.7345L43.5339 33.2757H46.2205C47.0049 33.2757 47.6679 33.7579 47.9095 34.5041C48.1511 35.2503 47.8965 36.0295 47.2609 36.4893L45.0855 38.0626L45.9177 40.6048C46.1582 41.3397 45.8995 42.1388 45.274 42.5933C44.9615 42.8202 44.5959 42.9336 44.2303 42.9336ZM41.0231 38.9159C41.217 38.9159 41.4112 38.976 41.5758 39.0962L44.0397 40.8946L43.0907 37.9956C42.9638 37.6081 43.1019 37.1832 43.4323 36.9443L45.9128 35.1504H42.8515C42.4449 35.1504 42.0846 34.8882 41.9595 34.5012L41.0231 31.6042L40.0867 34.5013C39.9615 34.8882 39.6013 35.1504 39.1946 35.1504H36.1335L38.614 36.9443C38.9443 37.1832 39.0823 37.6081 38.9556 37.9956L38.0066 40.8946L40.4705 39.0962C40.635 38.976 40.829 38.9159 41.0231 38.9159Z" fill="#3B9670"/>
<path d="M10.1833 42.9336C9.81643 42.9336 9.44971 42.8194 9.1368 42.5911L6.97623 41.014L4.81557 42.591C4.19097 43.0468 3.35104 43.0477 2.7255 42.5932C2.09996 42.1387 1.84123 41.3396 2.08178 40.6048L2.91402 38.0625L0.738548 36.4894C0.102978 36.0296 -0.151625 35.2503 0.0899476 34.5041C0.331521 33.7578 0.994464 33.2757 1.77899 33.2757H4.46563L5.287 30.7346C5.52848 29.9878 6.19152 29.5054 6.97632 29.5054H6.97642C7.76113 29.5055 8.42408 29.9879 8.66556 30.7346L9.48702 33.2757H12.1737C12.9581 33.2757 13.621 33.758 13.8627 34.5042C14.1044 35.2503 13.8496 36.0296 13.214 36.4893L11.0386 38.0626L11.8709 40.6048C12.1113 41.3397 11.8527 42.1388 11.2271 42.5933C10.9146 42.8202 10.549 42.9336 10.1833 42.9336ZM6.97623 38.9159C7.17018 38.9159 7.36432 38.976 7.52893 39.0962L9.99285 40.8946L9.0438 37.9956C8.91697 37.6081 9.05505 37.1832 9.3854 36.9443L11.8659 35.1504H8.80457C8.39792 35.1504 8.03767 34.8882 7.91253 34.5013L6.97614 31.6042L6.03975 34.5012C5.9146 34.8882 5.55435 35.1504 5.1477 35.1504H2.08646L4.56706 36.9443C4.89732 37.1832 5.0354 37.6081 4.90866 37.9956L3.95962 40.8946L6.42353 39.0962C6.58814 38.976 6.78219 38.9159 6.97623 38.9159Z" fill="#3B9670"/>
<path d="M30.2447 42.938C29.7174 42.938 29.1903 42.7702 28.7306 42.4347L24.0008 38.9825L19.2711 42.4347C18.3532 43.1045 17.166 43.1058 16.247 42.4378C15.3277 41.77 14.9622 40.6407 15.3156 39.5609L17.1373 33.9959L12.3772 30.5532C11.4575 29.8881 11.0892 28.7606 11.4388 27.6808C11.7883 26.601 12.7475 25.9034 13.8824 25.9034H19.7589L21.5568 20.3416C21.9061 19.2613 22.8653 18.563 24.0008 18.563C25.1363 18.563 26.0957 19.2612 26.4449 20.3416L28.2428 25.9034H34.1193C35.2542 25.9034 36.2134 26.601 36.5629 27.6808C36.9125 28.7606 36.5442 29.8881 35.6245 30.5532L30.8643 33.9959L32.6861 39.5609C33.0396 40.6408 32.674 41.77 31.7547 42.4378C31.2957 42.7712 30.7702 42.938 30.2447 42.938ZM24.0007 36.8844C24.1947 36.8844 24.3888 36.9445 24.5535 37.0646L29.8359 40.9203C30.2144 41.1965 30.5568 40.9907 30.6527 40.9211C30.7486 40.8514 31.05 40.5895 30.9043 40.1442L28.8697 33.9288C28.7429 33.5414 28.881 33.1164 29.2113 32.8776L34.5258 29.0341C34.9052 28.7596 34.8158 28.3708 34.7793 28.2583C34.7428 28.1457 34.5875 27.7782 34.1193 27.7782H27.5606C27.1539 27.7782 26.7937 27.516 26.6685 27.1291L24.6609 20.9183C24.5169 20.4725 24.1193 20.4378 24.0008 20.4378C23.8824 20.4378 23.4848 20.4725 23.3408 20.9182L21.3331 27.1291C21.208 27.516 20.8477 27.7782 20.4411 27.7782H13.8824C13.4142 27.7782 13.2589 28.1457 13.2224 28.2583C13.1859 28.3708 13.0965 28.7597 13.4759 29.0341L18.7904 32.8776C19.1206 33.1164 19.2587 33.5414 19.132 33.9288L17.0974 40.1442C16.9515 40.5895 17.253 40.8514 17.349 40.9211C17.4448 40.9907 17.7872 41.1965 18.1658 40.9203L23.4482 37.0646C23.6127 36.9445 23.8068 36.8844 24.0007 36.8844Z" fill="#3B9670"/>
<path d="M23.9999 14.6807C23.4823 14.6807 23.0625 14.2609 23.0625 13.7433V10.2182C23.0625 9.70054 23.4823 9.28076 23.9999 9.28076C24.5176 9.28076 24.9373 9.70054 24.9373 10.2182V13.7433C24.9373 14.261 24.5176 14.6807 23.9999 14.6807Z" fill="#3B9670"/>
<path d="M33.5624 15.3677C33.3224 15.3677 33.0826 15.2761 32.8995 15.0932C32.5335 14.7271 32.5335 14.1335 32.8995 13.7674L37.8851 8.7818C38.2513 8.41583 38.8447 8.41583 39.2109 8.7818C39.577 9.14786 39.577 9.74144 39.2109 10.1076L34.2253 15.0932C34.0422 15.2762 33.8024 15.3677 33.5624 15.3677Z" fill="#3B9670"/>
<path d="M14.4386 15.3677C14.1986 15.3677 13.9588 15.2761 13.7757 15.0932L8.79017 10.1076C8.42411 9.74153 8.42411 9.14796 8.79017 8.7818C9.15633 8.41583 9.74971 8.41583 10.116 8.7818L15.1015 13.7674C15.4676 14.1334 15.4676 14.727 15.1015 15.0932C14.9184 15.2762 14.6786 15.3677 14.4386 15.3677Z" fill="#3B9670"/>
<path d="M24.0077 6.93734C23.7612 6.93734 23.5193 6.83703 23.3451 6.66258C23.1707 6.48831 23.0703 6.24646 23.0703 5.99992C23.0703 5.75328 23.1706 5.51152 23.3451 5.33716C23.5203 5.1628 23.7612 5.0625 24.0077 5.0625C24.2543 5.0625 24.4961 5.16271 24.6705 5.33716C24.8458 5.51152 24.946 5.75328 24.946 5.99992C24.946 6.24646 24.8458 6.48831 24.6705 6.66258C24.4961 6.83694 24.2552 6.93734 24.0077 6.93734Z" fill="#3B9670"/>
</svg>
